<?xml version="1.0" standalone="no"?>
<!DOCTYPE svg PUBLIC "-//W3C//DTD SVG 20010904//EN"
 "http://www.w3.org/TR/2001/REC-SVG-20010904/DTD/svg10.dtd">
<svg version="1.0" xmlns="http://www.w3.org/2000/svg"
 width="1024.000000pt" height="1024.000000pt" viewBox="0 0 1024.000000 1024.000000"
 preserveAspectRatio="xMidYMid meet">

<g transform="translate(0.000000,1024.000000) scale(0.100000,-0.100000)"
fill="#000000" stroke="none">
<path d="M5395 8513 c-293 -41 -692 -271 -1100 -633 -153 -135 -536 -527 -678
-694 -408 -477 -735 -971 -1022 -1546 -286 -572 -462 -1062 -578 -1610 -62
-290 -72 -390 -72 -720 0 -268 2 -305 23 -408 28 -140 70 -259 133 -382 114
-221 256 -352 454 -417 72 -24 96 -27 230 -27 91 0 174 5 210 13 455 102 973
467 1568 1106 211 226 605 708 942 1152 55 73 101 131 102 129 1 -1 -22 -65
-53 -141 -108 -274 -256 -819 -238 -879 16 -52 83 -96 147 -96 57 0 96 38 205
195 186 268 527 679 772 929 248 253 267 259 232 74 -43 -220 -54 -335 -49
-478 8 -200 41 -295 134 -388 93 -93 211 -128 345 -103 83 16 260 104 373 185
118 86 261 219 324 303 43 58 64 103 46 103 -2 0 -55 -35 -117 -79 -225 -157
-413 -265 -533 -306 -58 -20 -152 -22 -186 -5 -46 24 -89 74 -106 124 -43 123
-7 476 83 824 29 113 30 135 4 178 -31 49 -92 70 -162 55 -80 -18 -181 -72
-303 -163 -127 -95 -558 -515 -668 -650 -39 -48 -72 -86 -75 -84 -4 5 101 260
163 391 26 55 85 183 132 285 149 325 349 700 577 1078 139 231 146 242 378
590 119 179 188 292 188 308 0 36 -23 76 -65 113 -71 62 -143 35 -249 -96 -89
-111 -403 -575 -554 -818 -51 -82 -131 -211 -178 -285 -47 -74 -123 -200 -170
-280 -47 -80 -161 -248 -255 -375 -94 -126 -216 -293 -270 -370 -112 -157
-320 -422 -513 -655 -782 -940 -1542 -1557 -2049 -1665 -248 -53 -465 42 -570
251 -46 92 -85 218 -103 334 -18 124 -18 429 1 590 52 450 231 1036 504 1655
120 272 347 695 504 940 39 61 99 157 135 215 466 757 1205 1562 1713 1868
341 204 547 230 654 83 95 -131 86 -324 -31 -621 -65 -165 -190 -417 -268
-543 -178 -289 -420 -579 -610 -731 -48 -39 -86 -77 -86 -87 0 -9 14 -29 31
-43 92 -78 268 22 516 294 333 365 597 842 683 1238 26 119 29 288 5 377 -39
149 -147 291 -265 348 -94 46 -225 65 -335 50z"/>
</g>
</svg>
