<?xml version="1.0" standalone="no"?>
<!DOCTYPE svg PUBLIC "-//W3C//DTD SVG 20010904//EN"
 "http://www.w3.org/TR/2001/REC-SVG-20010904/DTD/svg10.dtd">
<svg version="1.0" xmlns="http://www.w3.org/2000/svg"
 width="1024.000000pt" height="1024.000000pt" viewBox="0 0 1024.000000 1024.000000"
 preserveAspectRatio="xMidYMid meet">

<g transform="translate(0.000000,1024.000000) scale(0.100000,-0.100000)"
fill="#000000" stroke="none">
<path d="M0 5120 l0 -5120 5120 0 5120 0 0 5120 0 5120 -5120 0 -5120 0 0
-5120z m5605 3385 c102 -22 171 -59 246 -134 112 -112 160 -239 160 -426 2
-389 -295 -997 -704 -1445 -248 -272 -424 -372 -516 -294 -17 14 -31 34 -31
43 0 10 38 48 86 87 190 152 432 442 610 731 123 198 287 560 334 738 31 115
37 257 16 326 -79 251 -305 257 -705 17 -508 -306 -1247 -1111 -1713 -1868
-36 -58 -96 -154 -135 -215 -442 -691 -837 -1649 -973 -2360 -35 -182 -50
-350 -50 -545 0 -208 15 -332 56 -460 59 -187 140 -299 262 -363 190 -99 403
-72 716 91 490 255 1083 788 1702 1532 193 233 401 498 513 655 54 77 176 244
270 370 94 127 208 295 255 375 47 80 123 206 170 280 47 74 127 203 178 285
151 243 465 707 554 818 106 131 178 158 249 96 42 -37 65 -77 65 -113 0 -16
-69 -129 -188 -308 -232 -348 -239 -359 -378 -590 -228 -378 -428 -753 -577
-1078 -47 -102 -106 -230 -132 -285 -62 -131 -167 -386 -163 -391 3 -2 36 36
75 84 110 135 541 555 668 650 122 91 223 145 303 163 70 15 131 -6 162 -55
26 -43 25 -65 -4 -178 -90 -348 -126 -701 -83 -824 17 -50 60 -100 106 -124
34 -17 128 -15 186 5 120 41 308 149 533 306 62 44 115 79 117 79 18 0 -3 -45
-46 -103 -63 -84 -206 -217 -324 -303 -113 -81 -290 -169 -373 -185 -134 -25
-252 10 -345 103 -93 93 -126 188 -134 388 -5 143 6 258 49 478 35 185 16 179
-232 -74 -245 -250 -586 -661 -772 -929 -109 -157 -148 -195 -205 -195 -64 0
-131 44 -147 96 -18 60 130 605 238 879 31 76 54 140 53 141 -1 2 -47 -56
-102 -129 -337 -444 -731 -926 -942 -1152 -595 -639 -1113 -1004 -1568 -1106
-36 -8 -119 -13 -210 -13 -134 0 -158 3 -230 27 -198 65 -340 196 -454 417
-63 123 -105 242 -133 382 -21 103 -23 140 -23 408 0 330 10 430 72 720 116
548 292 1038 578 1610 372 744 797 1338 1375 1923 324 329 494 476 745 646
366 247 660 345 890 296z"/>
</g>
</svg>
